<?xml version="1.0" encoding="UTF-8"?>
<svg xmlns="http://www.w3.org/2000/svg" xmlns:xlink="http://www.w3.org/1999/xlink" width="40px"
  height="40px" viewBox="0 0 40 40" version="1.1">
  <defs>
    <filter id="alpha" filterUnits="objectBoundingBox" x="0%" y="0%" width="100%" height="100%">
      <feColorMatrix type="matrix" in="SourceGraphic"
        values="0 0 0 0 1 0 0 0 0 1 0 0 0 0 1 0 0 0 1 0" />
    </filter>
    <mask id="mask0">
      <g filter="url(#alpha)">
        <rect x="0" y="0" width="40" height="40"
          style="fill:rgb(0%,0%,0%);fill-opacity:0.501961;stroke:none;" />
      </g>
    </mask>
    <clipPath id="clip1">
      <rect x="0" y="0" width="40" height="40" />
    </clipPath>
    <g id="surface5" clip-path="url(#clip1)">
      <path
        style=" stroke:none;fill-rule:evenodd;fill:rgb(58.039218%,31.764707%,31.764707%);fill-opacity:1;"
        d="M 16.445312 28.890625 C 16.445312 28.152344 17.042969 27.554688 17.777344 27.554688 L 23.113281 27.554688 C 23.847656 27.554688 24.445312 28.152344 24.445312 28.890625 C 24.445312 29.625 23.847656 30.222656 23.113281 30.222656 L 17.777344 30.222656 C 17.042969 30.222656 16.445312 29.625 16.445312 28.890625 Z M 16.445312 28.890625 " />
    </g>
  </defs>
  <g id="surface1">
    <path style=" stroke:none;fill-rule:nonzero;fill:rgb(100%,78.431374%,0%);fill-opacity:1;"
      d="M 30.730469 31.582031 C 30.359375 33.53125 28.65625 34.941406 26.675781 34.941406 L 13.300781 34.941406 C 11.316406 34.941406 9.613281 33.53125 9.242188 31.582031 L 6.226562 15.746094 L 19.875 5.652344 L 33.75 15.742188 Z M 30.730469 31.582031 " />
    <use xlink:href="#surface5" mask="url(#mask0)" />
    <path
      style=" stroke:none;fill-rule:nonzero;fill:rgb(58.039218%,31.764707%,31.764707%);fill-opacity:1;"
      d="M 24.347656 20.375 C 24.347656 22.777344 22.402344 24.722656 20 24.722656 C 17.597656 24.722656 15.652344 22.777344 15.652344 20.375 C 15.652344 17.972656 17.597656 16.027344 20 16.027344 C 22.402344 16.027344 24.347656 17.972656 24.347656 20.375 Z M 24.347656 20.375 " />
    <path
      style=" stroke:none;fill-rule:nonzero;fill:rgb(100%,29.411766%,29.411766%);fill-opacity:1;"
      d="M 20.210938 3.554688 C 20.804688 3.554688 21.402344 3.730469 21.921875 4.105469 L 21.921875 4.109375 L 37.433594 15.289062 C 38.722656 16.226562 39.007812 18.035156 38.070312 19.324219 C 37.132812 20.617188 35.328125 20.902344 34.035156 19.964844 L 20.199219 9.988281 L 6.363281 19.964844 C 5.074219 20.902344 3.265625 20.617188 2.328125 19.324219 C 1.390625 18.035156 1.679688 16.226562 2.96875 15.289062 L 2.972656 15.289062 L 18.480469 4.109375 L 18.480469 4.105469 C 19.003906 3.726562 19.609375 3.546875 20.210938 3.554688 Z M 20.210938 3.554688 " />
  </g>
</svg>