<svg width="168" height="269" viewBox="0 0 168 269" fill="none" xmlns="http://www.w3.org/2000/svg"><path fill-rule="evenodd" clip-rule="evenodd" d="M60.3974 155.217L17.1194 242.883L36.3876 252.395L55.9952 212.677V240.346H111.216V212.677L130.823 252.395L150.092 242.883L106.814 155.217H60.3974Z" fill="#84D8FF"/><rect x="38.6006" y="22.9878" width="50.7823" height="50.7823" rx="25.3911" transform="rotate(8.52398 38.6006 22.9878)" fill="#84D8FF"/><rect x="70.8887" y="7.29932" width="71.639" height="71.639" rx="35.8195" transform="rotate(8.52398 70.8887 7.29932)" fill="#84D8FF"/><rect x="26.2762" y="55.9999" width="115.126" height="101.935" rx="23.9846" fill="#84D8FF"/><rect x="131.809" y="88.0508" width="23.9846" height="23.9846" rx="11.9923" fill="#84D8FF"/><rect x="11.8859" y="88.0506" width="23.9846" height="23.9846" rx="11.9923" fill="#84D8FF"/><path d="M117.418 55.6722V55.6722C130.664 55.6722 141.403 66.4105 141.403 79.6569V88.0515H136.606C126.009 88.0515 117.418 79.4609 117.418 68.8638V55.6722Z" fill="#84D8FF"/><path d="M75.4443 55.6724H44.2643V55.6724C34.3295 55.6724 26.2758 63.7261 26.2758 73.6608V88.0516H31.0727C41.6698 88.0516 50.2605 79.461 50.2605 68.8639V59.8697L51.5427 60.6587C59.5713 65.5994 70.0609 63.4111 75.4443 55.6724V55.6724Z" fill="#84D8FF"/><path fill-rule="evenodd" clip-rule="evenodd" d="M126.087 57.2864C119.908 66.9377 108.444 72.5895 96.3779 70.781C86.8018 69.3457 78.9664 63.5296 74.6016 55.6724H117.419C120.475 55.6724 123.398 56.2441 126.087 57.2864Z" fill="#84D8FF"/><path fill-rule="evenodd" clip-rule="evenodd" d="M107.55 4.34886C105.133 3.98661 102.734 3.82757 100.37 3.85843C99.3058 3.87232 98.4317 3.02076 98.4178 1.95641C98.4039 0.892063 99.2555 0.017975 100.32 0.00408131C102.891 -0.029478 105.497 0.143556 108.121 0.536763C110.933 0.958264 113.653 1.61606 116.263 2.48741C117.273 2.82446 117.818 3.91619 117.481 4.92585C117.144 5.93552 116.052 6.48079 115.043 6.14374C112.643 5.34269 110.14 4.73717 107.55 4.34886ZM94.7689 2.30405C94.9565 3.35182 94.2592 4.35331 93.2115 4.54094C88.4276 5.39762 83.8706 7.03544 79.7006 9.33553C78.7685 9.84964 77.5962 9.51081 77.0821 8.57876C76.568 7.6467 76.9068 6.47436 77.8389 5.96026C82.3711 3.4604 87.3267 1.67877 92.532 0.746627C93.5798 0.558997 94.5813 1.25628 94.7689 2.30405ZM121.328 6.5977C121.837 5.6625 123.007 5.31649 123.942 5.82487C128.913 8.52699 133.314 12.0654 136.986 16.224C137.691 17.0219 137.615 18.2399 136.817 18.9445C136.019 19.6491 134.801 19.5734 134.097 18.7756C130.717 14.9487 126.67 11.695 122.101 9.21151C121.166 8.70313 120.82 7.53289 121.328 6.5977ZM74.0268 10.6031C74.6845 11.44 74.5394 12.6516 73.7025 13.3094C71.8168 14.7915 70.0506 16.4266 68.4245 18.1989C67.9684 18.6961 67.2856 18.9186 66.6241 18.7855C66.4391 18.7482 66.2535 18.7125 66.0673 18.6782C65.9725 18.6608 65.8806 18.6367 65.792 18.6065C65.6984 18.6047 65.6038 18.5961 65.5087 18.5802C65.3225 18.5492 65.1357 18.5196 64.9484 18.4915C61.9575 18.0432 59.0023 18.0022 56.1379 18.3256C55.0802 18.445 54.1259 17.6844 54.0065 16.6266C53.8871 15.5689 54.6477 14.6147 55.7055 14.4952C58.9008 14.1345 62.1935 14.1809 65.5198 14.6794C65.7281 14.7107 65.9359 14.7436 66.1431 14.7781C66.2012 14.7878 66.2584 14.8001 66.3143 14.8147C67.8767 13.1857 69.5503 11.6701 71.3205 10.2788C72.1573 9.62102 73.369 9.76621 74.0268 10.6031ZM48.6785 17.9552C49.0691 18.9453 48.5831 20.0647 47.5929 20.4553C42.089 22.6266 37.2319 26.2176 33.5424 30.843C32.8786 31.6752 31.666 31.8117 30.8338 31.1479C30.0017 30.4842 29.8652 29.2715 30.5289 28.4394C34.6388 23.2868 40.0473 19.2883 46.1783 16.8696C47.1685 16.479 48.2878 16.965 48.6785 17.9552ZM139.312 22.3188C140.219 21.7625 141.406 22.0473 141.962 22.9548C144.862 27.685 146.954 32.9298 148.08 38.4744C148.292 39.5175 147.618 40.5349 146.575 40.7468C145.532 40.9586 144.515 40.2847 144.303 39.2416C143.268 34.1456 141.344 29.322 138.676 24.9692C138.12 24.0616 138.404 22.875 139.312 22.3188ZM150.263 69.6845C151.297 69.4335 152.339 70.0687 152.59 71.1031C153.11 73.2468 153.439 75.4645 153.559 77.7368C153.561 77.7899 153.564 77.8429 153.567 77.896C156.169 79.0451 158.529 80.6385 160.552 82.579C161.32 83.316 161.345 84.536 160.608 85.3041C159.871 86.0722 158.651 86.0975 157.883 85.3606C155.921 83.4779 153.584 81.986 150.997 81.0074C150.256 80.7272 149.762 80.022 149.751 79.2298C149.75 79.0861 149.747 78.9426 149.743 78.7993C149.741 78.7265 149.743 78.6546 149.749 78.5837C149.739 78.5134 149.732 78.4418 149.729 78.369C149.723 78.2255 149.717 78.0822 149.709 77.939C149.602 75.9068 149.308 73.9255 148.844 72.0118C148.593 70.9774 149.228 69.9354 150.263 69.6845ZM163.535 89.5312C164.514 89.1132 165.647 89.5679 166.065 90.5468C167.311 93.4649 168 96.6759 168 100.043C168 103.409 167.311 106.62 166.065 109.538C165.647 110.517 164.515 110.972 163.536 110.554C162.557 110.136 162.102 109.003 162.52 108.024C163.565 105.576 164.145 102.88 164.145 100.043C164.145 97.2057 163.565 94.5089 162.52 92.0606C162.102 91.0817 162.557 89.9493 163.535 89.5312ZM18.6008 146.888C19.5576 146.421 20.7114 146.819 21.1779 147.776C23.3355 152.2 26.4743 156.061 30.3119 159.073C31.1492 159.73 31.2951 160.942 30.6379 161.779C29.9807 162.616 28.7691 162.762 27.9318 162.105C23.6404 158.737 20.1288 154.418 17.7133 149.465C17.2467 148.508 17.6441 147.355 18.6008 146.888ZM33.9699 163.834C34.4223 162.87 35.5701 162.456 36.5336 162.909C38.7192 163.935 41.0382 164.723 43.4577 165.241C44.0389 165.366 44.5302 165.751 44.7891 166.287C45.048 166.822 45.0456 167.446 44.7825 167.979L40.371 176.915C39.8999 177.87 38.7441 178.261 37.7897 177.79C36.8352 177.319 36.4434 176.163 36.9146 175.209L40.2685 168.415C38.412 167.883 36.6165 167.206 34.8952 166.398C33.9317 165.945 33.5174 164.797 33.9699 163.834ZM35.0846 183.27C36.0391 183.741 36.4308 184.897 35.9596 185.851L27.1368 203.723C26.6656 204.678 25.5099 205.069 24.5555 204.598C23.601 204.127 23.2092 202.971 23.6804 202.017L32.5032 184.145C32.9744 183.19 34.1301 182.799 35.0846 183.27ZM132.159 183.338C133.114 182.867 134.269 183.259 134.741 184.213L143.554 202.066C144.025 203.02 143.633 204.176 142.679 204.647C141.724 205.118 140.569 204.727 140.097 203.772L131.284 185.92C130.813 184.965 131.205 183.81 132.159 183.338ZM21.8504 210.078C22.8048 210.549 23.1966 211.705 22.7254 212.659L13.9026 230.531C13.4314 231.485 12.2757 231.877 11.3212 231.406C10.3668 230.935 9.97499 229.779 10.4462 228.825L19.269 210.953C19.7402 209.998 20.8959 209.607 21.8504 210.078ZM145.379 210.117C146.333 209.646 147.489 210.037 147.96 210.992L156.774 228.844C157.245 229.799 156.853 230.954 155.898 231.426C154.944 231.897 153.788 231.505 153.317 230.551L144.504 212.698C144.033 211.744 144.425 210.588 145.379 210.117ZM8.61617 236.886C9.57063 237.357 9.96241 238.513 9.49122 239.467L5.93298 246.675L10.4885 248.924C11.443 249.395 11.8348 250.551 11.3636 251.505C10.8924 252.46 9.73665 252.851 8.78218 252.38L2.49843 249.278C1.54396 248.807 1.15219 247.651 1.62338 246.697L6.03478 237.761C6.50597 236.806 7.6617 236.414 8.61617 236.886ZM158.599 236.895C159.553 236.424 160.709 236.816 161.18 237.77L165.587 246.697C166.058 247.651 165.666 248.807 164.712 249.278L158.428 252.38C157.473 252.851 156.318 252.46 155.846 251.505C155.375 250.551 155.767 249.395 156.722 248.924L161.277 246.675L157.724 239.477C157.252 238.522 157.644 237.367 158.599 236.895ZM46.9961 249.772C47.3208 249.114 47.9908 248.698 48.7244 248.698H56.4756C57.5401 248.698 58.4029 249.561 58.4029 250.625C58.4029 251.69 57.5401 252.552 56.4756 252.552H49.9223L47.8958 256.657C47.4246 257.612 46.2689 258.004 45.3144 257.532C44.36 257.061 43.9682 255.906 44.4394 254.951L46.9961 249.772ZM62.2995 250.625C62.2995 249.561 63.1624 248.698 64.2269 248.698H79.7294C80.7938 248.698 81.6567 249.561 81.6567 250.625C81.6567 251.69 80.7938 252.552 79.7294 252.552H64.2269C63.1624 252.552 62.2995 251.69 62.2995 250.625ZM85.5533 250.625C85.5533 249.561 86.4162 248.698 87.4807 248.698H102.983C104.048 248.698 104.911 249.561 104.911 250.625C104.911 251.69 104.048 252.552 102.983 252.552H87.4807C86.4162 252.552 85.5533 251.69 85.5533 250.625ZM108.807 250.625C108.807 249.561 109.67 248.698 110.734 248.698H118.486C119.219 248.698 119.889 249.114 120.214 249.772L122.771 254.951C123.242 255.906 122.85 257.061 121.896 257.532C120.941 258.004 119.785 257.612 119.314 256.657L117.288 252.552H110.734C109.67 252.552 108.807 251.69 108.807 250.625ZM14.1909 252.901C14.6621 251.946 15.8178 251.555 16.7723 252.026L29.3398 258.23C30.2943 258.701 30.686 259.857 30.2148 260.811C29.7436 261.766 28.5879 262.158 27.6335 261.686L15.0659 255.482C14.1115 255.011 13.7197 253.855 14.1909 252.901ZM153.019 252.901C153.49 253.855 153.099 255.011 152.144 255.482L139.577 261.686C138.622 262.158 137.466 261.766 136.995 260.811C136.524 259.857 136.916 258.701 137.87 258.23L150.438 252.026C151.392 251.555 152.548 251.946 153.019 252.901ZM44.464 259.255C45.4185 259.726 45.8103 260.882 45.3391 261.836L42.7823 267.016C42.5561 267.474 42.157 267.824 41.6729 267.988C41.1888 268.152 40.6593 268.117 40.201 267.891L33.9172 264.788C32.9627 264.317 32.571 263.162 33.0422 262.207C33.5133 261.253 34.6691 260.861 35.6235 261.332L40.1791 263.581L41.8827 260.13C42.3538 259.176 43.5096 258.784 44.464 259.255ZM122.746 259.255C123.7 258.784 124.856 259.176 125.327 260.13L127.031 263.581L131.587 261.332C132.541 260.861 133.697 261.253 134.168 262.207C134.639 263.162 134.247 264.317 133.293 264.788L127.009 267.891C126.551 268.117 126.021 268.152 125.537 267.988C125.053 267.824 124.654 267.474 124.428 267.016L121.871 261.836C121.4 260.882 121.792 259.726 122.746 259.255Z" fill="#1CB0F6"/><path fill-rule="evenodd" clip-rule="evenodd" d="M28.644 35.2578C29.5243 35.8562 29.7529 37.0549 29.1546 37.9353C28.2918 39.2046 27.4827 41.612 26.8977 44.5376C26.3263 47.3956 26.0198 50.481 26.0197 52.9131C26.0197 53.9775 25.1567 54.8404 24.0923 54.8403C23.0279 54.8403 22.165 53.9774 22.165 52.9129C22.1651 50.2054 22.5011 46.8664 23.1179 43.7818C23.7211 40.7647 24.646 37.7113 25.9666 35.7684C26.5649 34.8881 27.7637 34.6595 28.644 35.2578Z" fill="#1CB0F6"/><path fill-rule="evenodd" clip-rule="evenodd" d="M20.5029 58.3333C21.4128 58.8857 21.7026 60.0711 21.1503 60.981C18.3107 65.6586 17.6911 71.6197 18.2036 75.8079C18.3329 76.8645 17.5812 77.8258 16.5246 77.9551C15.468 78.0843 14.5067 77.3326 14.3775 76.2761C13.7894 71.47 14.4548 64.5822 17.8552 58.9807C18.4076 58.0708 19.593 57.781 20.5029 58.3333Z" fill="#1CB0F6"/><path fill-rule="evenodd" clip-rule="evenodd" d="M12.1057 81.2618C12.7706 82.093 12.6359 83.3058 11.8047 83.9708C8.87713 86.3128 5.00924 91.0676 3.82392 97.5868C3.63351 98.6341 2.63017 99.3287 1.5829 99.1383C0.535629 98.9479 -0.15899 97.9446 0.0314223 96.8973C1.41589 89.2827 5.89979 83.7583 9.39669 80.9608C10.2279 80.2959 11.4407 80.4306 12.1057 81.2618Z" fill="#1CB0F6"/><path fill-rule="evenodd" clip-rule="evenodd" d="M1.93201 103.051C2.98197 102.876 3.97499 103.585 4.14998 104.635C4.41017 106.196 5.54297 108.982 7.44568 111.722C9.34249 114.454 11.8051 116.849 14.5287 117.939C15.517 118.334 15.9977 119.455 15.6024 120.444C15.2071 121.432 14.0854 121.913 13.0971 121.517C9.39622 120.037 6.39805 116.972 4.27957 113.921C2.16699 110.879 0.730008 107.562 0.347752 105.269C0.17276 104.219 0.882058 103.226 1.93201 103.051Z" fill="#1CB0F6"/><path fill-rule="evenodd" clip-rule="evenodd" d="M16.6557 124.245C17.7094 124.396 18.4416 125.372 18.291 126.426C17.9916 128.521 17.8939 131.51 18.0036 134.363C18.1156 137.275 18.4343 139.752 18.8462 140.94C19.1949 141.946 18.6622 143.044 17.6565 143.393C16.6508 143.741 15.5528 143.209 15.2042 142.203C14.5882 140.426 14.2645 137.442 14.1518 134.511C14.0367 131.52 14.1319 128.282 14.4751 125.88C14.6256 124.827 15.6019 124.094 16.6557 124.245Z" fill="#1CB0F6"/><path fill-rule="evenodd" clip-rule="evenodd" d="M147.442 45.2036C148.506 45.2036 149.369 46.0665 149.369 47.131V48.1475C149.369 51.9211 148.818 55.6746 147.734 59.2891C147.647 59.578 147.683 59.8899 147.833 60.1518L149.758 63.5208C150.286 64.445 149.965 65.6223 149.041 66.1504C148.117 66.6785 146.939 66.3574 146.411 65.4332L144.486 62.0643C143.812 60.8855 143.652 59.4819 144.042 58.1815C145.019 54.9263 145.515 51.546 145.515 48.1475V47.131C145.515 46.0665 146.378 45.2036 147.442 45.2036Z" fill="#1CB0F6"/><path fill-rule="evenodd" clip-rule="evenodd" d="M160.852 114.367C161.684 115.032 161.818 116.245 161.153 117.076C159.888 118.659 158.01 120.08 156.392 121.083C155.569 121.595 154.763 122.028 154.07 122.342C154.002 122.372 153.934 122.402 153.866 122.431V129.364C153.866 130.428 153.003 131.291 151.939 131.291C150.875 131.291 150.012 130.428 150.012 129.364V121.012C150.012 119.99 150.806 119.154 151.811 119.089C151.829 119.084 151.855 119.076 151.89 119.065C152.026 119.022 152.224 118.945 152.483 118.829C152.996 118.597 153.652 118.247 154.36 117.808C155.805 116.912 157.268 115.763 158.143 114.668C158.808 113.837 160.021 113.702 160.852 114.367ZM151.778 119.097C151.778 119.097 151.779 119.096 151.781 119.096Z" fill="#1CB0F6"/><path fill-rule="evenodd" clip-rule="evenodd" d="M151.296 135.146C152.361 135.146 153.224 136.009 153.224 137.074C153.224 138.902 152.909 141.862 151.991 145.024C151.074 148.18 149.513 151.683 146.921 154.452C146.194 155.229 144.974 155.269 144.197 154.542C143.42 153.814 143.38 152.595 144.107 151.818C146.141 149.645 147.471 146.764 148.289 143.949C149.105 141.139 149.369 138.54 149.369 137.074C149.369 136.009 150.232 135.146 151.296 135.146Z" fill="#1CB0F6"/><path fill-rule="evenodd" clip-rule="evenodd" d="M142.455 157.633C143.164 158.427 143.095 159.646 142.301 160.355C140.751 161.739 138.184 163.855 135.183 165.694C132.945 167.066 130.356 168.353 127.699 169.015L129.939 174.216C130.36 175.193 129.909 176.327 128.931 176.748C127.954 177.169 126.82 176.718 126.399 175.741L123.187 168.284C122.94 167.711 122.985 167.055 123.308 166.522C123.631 165.989 124.192 165.646 124.814 165.599C127.442 165.404 130.393 164.109 133.168 162.408C135.907 160.729 138.286 158.772 139.734 157.479C140.528 156.77 141.747 156.839 142.455 157.633Z" fill="#1CB0F6"/><path d="M84 95V119" stroke="white" stroke-width="4" stroke-linecap="round"/><path d="M96 107L72 107" stroke="white" stroke-width="4" stroke-linecap="round"/></svg>