<?xml version="1.0" encoding="UTF-8"?>
<svg xmlns="http://www.w3.org/2000/svg" xmlns:xlink="http://www.w3.org/1999/xlink" width="40px" height="40px" viewBox="0 0 40 40" version="1.1">
<g id="surface1">
<path style=" stroke:none;fill-rule:nonzero;fill:rgb(15.294118%,19.607843%,22.745098%);fill-opacity:1;" d="M 28.648438 25.449219 C 28.265625 24.871094 27.796875 24.46875 27.191406 24.21875 C 28.089844 22.636719 28.277344 19.726562 28.257812 15.6875 C 28.21875 7.929688 27.277344 4.914062 24.902344 4.925781 C 22.535156 4.941406 21.625 7.96875 21.664062 15.722656 C 21.6875 20.042969 22.140625 22.871094 23.0625 24.347656 C 22.339844 24.664062 21.75 25.136719 21.367188 25.777344 C 21.09375 26.238281 20.992188 26.726562 20.992188 27.214844 C 20.992188 28.035156 21.28125 28.847656 21.515625 29.511719 L 21.605469 29.773438 C 21.863281 30.515625 22.171875 32.230469 22.171875 33.113281 C 22.171875 33.308594 22.152344 33.464844 22.121094 33.558594 L 22.25 33.398438 C 22.003906 33.707031 21.925781 34.199219 22.152344 34.519531 C 22.378906 34.84375 22.726562 35.039062 23.097656 34.917969 L 23.425781 34.804688 C 24.515625 34.4375 24.605469 34.40625 25.3125 33.910156 L 25.914062 33.492188 C 27.480469 32.429688 28.722656 30.777344 29.074219 29.28125 C 29.429688 27.765625 29.28125 26.402344 28.648438 25.449219 Z M 28.648438 25.449219 "/>
<path style=" stroke:none;fill-rule:nonzero;fill:rgb(47.450981%,80.000001%,74.901962%);fill-opacity:1;" d="M 24.914062 6.695312 C 25.167969 6.695312 26.445312 7.121094 26.488281 15.695312 C 26.496094 16.492188 26.5 17.691406 26.445312 18.9375 C 25.523438 18.664062 24.542969 18.691406 23.5625 19.007812 C 23.488281 18.089844 23.441406 17.015625 23.433594 15.710938 C 23.390625 7.351562 24.554688 6.695312 24.914062 6.695312 Z M 24.914062 6.695312 "/>
<path style=" stroke:none;fill-rule:nonzero;fill:rgb(100%,100%,100%);fill-opacity:1;" d="M 26.367188 20.179688 C 26.234375 21.71875 25.972656 23.121094 25.449219 23.640625 C 25.324219 23.761719 25.203125 23.8125 25.03125 23.8125 C 25.019531 23.8125 24.132812 23.734375 23.6875 20.238281 C 24.613281 19.882812 25.53125 19.863281 26.367188 20.179688 Z M 26.367188 20.179688 "/>
<path style=" stroke:none;fill-rule:nonzero;fill:rgb(95.686275%,80.784315%,45.09804%);fill-opacity:1;" d="M 27.351562 28.875 C 27.105469 29.929688 26.105469 31.226562 24.921875 32.027344 L 24.296875 32.464844 C 24.128906 32.578125 24.019531 32.652344 23.910156 32.714844 C 23.855469 31.105469 23.289062 29.222656 23.277344 29.195312 L 23.179688 28.921875 C 22.996094 28.398438 22.765625 27.742188 22.765625 27.214844 C 22.765625 27.011719 22.796875 26.828125 22.886719 26.683594 C 23.347656 25.910156 24.308594 25.710938 25.03125 25.683594 C 26.523438 25.621094 26.882812 25.980469 27.171875 26.421875 C 27.382812 26.746094 27.492188 27.203125 27.492188 27.742188 C 27.492188 28.09375 27.449219 28.476562 27.351562 28.875 Z M 27.351562 28.875 "/>
<path style=" stroke:none;fill-rule:nonzero;fill:rgb(15.294118%,19.607843%,22.745098%);fill-opacity:1;" d="M 25.761719 26.613281 C 25.4375 26.664062 25.21875 26.96875 25.273438 27.289062 C 25.46875 28.523438 25.496094 29.066406 24.964844 29.492188 C 24.710938 29.695312 24.667969 30.066406 24.871094 30.320312 C 25.074219 30.574219 25.445312 30.617188 25.699219 30.414062 C 26.824219 29.519531 26.625 28.289062 26.433594 27.101562 C 26.382812 26.78125 26.082031 26.5625 25.761719 26.613281 Z M 19.769531 33.25 C 20.257812 33.25 20.65625 33.644531 20.65625 34.132812 C 20.65625 34.621094 20.257812 35.019531 19.769531 35.019531 L 11.441406 35.019531 C 10.953125 35.019531 10.558594 34.621094 10.558594 34.132812 C 10.558594 33.644531 10.953125 33.25 11.441406 33.25 Z M 19.769531 33.25 "/>
</g>
</svg>
