<?xml version="1.0" encoding="UTF-8"?>
<svg width="1085px" height="837px" viewBox="0 0 1085 837" version="1.1" xmlns="http://www.w3.org/2000/svg" xmlns:xlink="http://www.w3.org/1999/xlink"><title>ja</title><desc>Created with Sketch.</desc><g id="ja" stroke="none" stroke-width="1" fill="none" fill-rule="evenodd"><path d="M194.727078,0 L890.272922,0 C957.98377,0 982.537359,7.05010505 1007.29143,20.2887285 C1032.04551,33.527352 1051.47265,52.9544938 1064.71127,77.7085675 C1077.94989,102.462641 1085,127.01623 1085,194.727078 L1085,642.272922 C1085,709.98377 1077.94989,734.537359 1064.71127,759.291433 C1051.47265,784.045506 1032.04551,803.472648 1007.29143,816.711271 C982.537359,829.949895 957.98377,837 890.272922,837 L194.727078,837 C127.01623,837 102.462641,829.949895 77.7085675,816.711271 C52.9544938,803.472648 33.527352,784.045506 20.2887285,759.291433 C7.05010505,734.537359 0,709.98377 0,642.272922 L0,194.727078 C0,127.01623 7.05010505,102.462641 20.2887285,77.7085675 C33.527352,52.9544938 52.9544938,33.527352 77.7085675,20.2887285 C102.462641,7.05010505 127.01623,0 194.727078,0 Z" id="Rectangle-3" fill="#EEEEEE"/><circle id="Oval-19" fill="#FF4B4B" fill-rule="nonzero" cx="542.5" cy="418.5" r="217"/></g></svg>