<?xml version="1.0" encoding="UTF-8"?>
<svg xmlns="http://www.w3.org/2000/svg" xmlns:xlink="http://www.w3.org/1999/xlink" width="40px" height="40px" viewBox="0 0 40 40" version="1.1">
<g id="surface1">
<path style=" stroke:none;fill-rule:nonzero;fill:rgb(0%,86.666667%,75.294119%);fill-opacity:1;" d="M 3.058594 0 L 11.925781 0 L 11.925781 40 L 3.058594 40 Z M 3.058594 0 "/>
<path style=" stroke:none;fill-rule:nonzero;fill:rgb(0%,67.450982%,57.647061%);fill-opacity:1;" d="M 7.492188 0 L 11.925781 0 L 11.925781 40 L 7.492188 40 Z M 7.492188 0 "/>
<path style=" stroke:none;fill-rule:nonzero;fill:rgb(100%,67.843139%,11.372549%);fill-opacity:1;" d="M 11.925781 0 L 20.796875 0 L 20.796875 40 L 11.925781 40 Z M 11.925781 0 "/>
<path style=" stroke:none;fill-rule:nonzero;fill:rgb(100%,53.725493%,0%);fill-opacity:1;" d="M 16.363281 0 L 20.796875 0 L 20.796875 40 L 16.363281 40 Z M 16.363281 0 "/>
<path style=" stroke:none;fill-rule:nonzero;fill:rgb(0%,40.000001%,34.901962%);fill-opacity:1;" d="M 3.058594 34.179688 L 11.925781 34.179688 L 11.925781 40 L 3.058594 40 Z M 3.058594 34.179688 "/>
<path style=" stroke:none;fill-rule:nonzero;fill:rgb(0%,32.549021%,28.627452%);fill-opacity:1;" d="M 7.492188 34.179688 L 11.925781 34.179688 L 11.925781 40 L 7.492188 40 Z M 7.492188 34.179688 "/>
<path style=" stroke:none;fill-rule:nonzero;fill:rgb(100%,30.980393%,9.411765%);fill-opacity:1;" d="M 11.925781 34.179688 L 20.796875 34.179688 L 20.796875 40 L 11.925781 40 Z M 11.925781 34.179688 "/>
<path style=" stroke:none;fill-rule:nonzero;fill:rgb(100%,20.392157%,0%);fill-opacity:1;" d="M 16.363281 34.179688 L 20.796875 34.179688 L 20.796875 40 L 16.363281 40 Z M 16.363281 34.179688 "/>
<path style=" stroke:none;fill-rule:nonzero;fill:rgb(0%,64.705884%,100%);fill-opacity:1;" d="M 36.941406 38.277344 L 28.511719 39.960938 L 20.90625 1.949219 L 29.335938 0.261719 Z M 36.941406 38.277344 "/>
<path style=" stroke:none;fill-rule:nonzero;fill:rgb(0%,50.980395%,82.352942%);fill-opacity:1;" d="M 36.941406 38.273438 L 32.726562 39.117188 L 25.121094 1.105469 L 29.335938 0.261719 Z M 36.941406 38.273438 "/>
<path style=" stroke:none;fill-rule:nonzero;fill:rgb(0%,42.745098%,95.294118%);fill-opacity:1;" d="M 36.941406 38.273438 L 28.511719 39.960938 L 27.371094 34.246094 L 35.800781 32.578125 Z M 36.941406 38.273438 "/>
<path style=" stroke:none;fill-rule:nonzero;fill:rgb(0%,37.254903%,81.960785%);fill-opacity:1;" d="M 36.941406 38.273438 L 32.726562 39.117188 L 31.585938 33.414062 L 35.800781 32.578125 Z M 36.941406 38.273438 "/>
<path style=" stroke:none;fill-rule:nonzero;fill:rgb(100%,100%,100%);fill-opacity:1;" d="M 5.78125 4 L 9.257812 4 L 9.257812 6.609375 L 5.78125 6.609375 Z M 5.78125 4 "/>
<path style=" stroke:none;fill-rule:nonzero;fill:rgb(88.235295%,88.235295%,89.411765%);fill-opacity:1;" d="M 7.519531 4 L 9.257812 4 L 9.257812 6.609375 L 7.519531 6.609375 Z M 7.519531 4 "/>
<path style=" stroke:none;fill-rule:nonzero;fill:rgb(100%,100%,100%);fill-opacity:1;" d="M 14.648438 4 L 18.128906 4 L 18.128906 6.609375 L 14.648438 6.609375 Z M 14.648438 4 "/>
<path style=" stroke:none;fill-rule:nonzero;fill:rgb(88.235295%,88.235295%,89.411765%);fill-opacity:1;" d="M 16.363281 4 L 18.128906 4 L 18.128906 6.609375 L 16.363281 6.609375 Z M 16.363281 4 "/>
<path style=" stroke:none;fill-rule:nonzero;fill:rgb(100%,100%,100%);fill-opacity:1;" d="M 24.808594 7.925781 L 24.316406 5.367188 L 27.625 4.726562 L 28.121094 7.289062 Z M 24.808594 7.925781 "/>
<path style=" stroke:none;fill-rule:nonzero;fill:rgb(88.235295%,88.235295%,89.411765%);fill-opacity:1;" d="M 26.421875 7.617188 L 25.910156 5.058594 L 27.625 4.726562 L 28.117188 7.289062 Z M 26.421875 7.617188 "/>
</g>
</svg>
